<mxfile host="app.diagrams.net" modified="2024-01-25T19:30:44.088Z" agent="Mozilla/5.0 (X11; Linux x86_64) AppleWebKit/537.36 (KHTML, like Gecko) Chrome/121.0.0.0 Safari/537.36" etag="Gl9VzSssW029nunqlzkQ" version="23.0.1" type="device">
  <diagram name="Page-1" id="KwNSYmPg0u967FBHecei">
    <mxGraphModel dx="3267" dy="1312" grid="1" gridSize="10" guides="1" tooltips="1" connect="1" arrows="1" fold="1" page="1" pageScale="1" pageWidth="827" pageHeight="1169" background="#000000" math="0" shadow="0">
      <root>
        <mxCell id="0" />
        <mxCell id="1" parent="0" />
        <mxCell id="KF0D9zMGD4cR6DPdZHrD-153" value="" style="endArrow=classic;html=1;rounded=0;strokeWidth=3;strokeColor=#FCFCFC;" edge="1" parent="1">
          <mxGeometry width="50" height="50" relative="1" as="geometry">
            <mxPoint x="549" y="177" as="sourcePoint" />
            <mxPoint x="549" y="97" as="targetPoint" />
            <Array as="points" />
          </mxGeometry>
        </mxCell>
        <mxCell id="KF0D9zMGD4cR6DPdZHrD-154" value="" style="endArrow=classic;html=1;rounded=0;strokeWidth=3;strokeColor=#FCFCFC;entryX=0.368;entryY=-0.133;entryDx=0;entryDy=0;entryPerimeter=0;" edge="1" parent="1" target="KF0D9zMGD4cR6DPdZHrD-169">
          <mxGeometry width="50" height="50" relative="1" as="geometry">
            <mxPoint x="579" y="100" as="sourcePoint" />
            <mxPoint x="579" y="157.5" as="targetPoint" />
            <Array as="points" />
          </mxGeometry>
        </mxCell>
        <UserObject label="8.8.8.8" link="foobar.com" id="KF0D9zMGD4cR6DPdZHrD-156">
          <mxCell style="text;whiteSpace=wrap;fontColor=#FCFCFC;fontSize=30;fontStyle=1" vertex="1" parent="1">
            <mxGeometry x="612" y="111" width="110" height="30" as="geometry" />
          </mxCell>
        </UserObject>
        <mxCell id="KF0D9zMGD4cR6DPdZHrD-157" value="" style="rounded=1;whiteSpace=wrap;html=1;fillColor=#171717;strokeColor=#EA6B66;strokeWidth=5;" vertex="1" parent="1">
          <mxGeometry x="660" y="675" width="681" height="740" as="geometry" />
        </mxCell>
        <UserObject label="Req" link="foobar.com" id="KF0D9zMGD4cR6DPdZHrD-158">
          <mxCell style="text;whiteSpace=wrap;fontColor=#FCFCFC;fontSize=30;fontStyle=1" vertex="1" parent="1">
            <mxGeometry x="480" y="247" width="55" height="30" as="geometry" />
          </mxCell>
        </UserObject>
        <UserObject label="application filesÂ &#xa;" link="foobar.com" id="KF0D9zMGD4cR6DPdZHrD-159">
          <mxCell style="text;whiteSpace=wrap;fontColor=#F5F5F5;fontSize=28;fontStyle=0" vertex="1" parent="1">
            <mxGeometry x="898" y="1349" width="220" height="30" as="geometry" />
          </mxCell>
        </UserObject>
        <mxCell id="KF0D9zMGD4cR6DPdZHrD-160" style="edgeStyle=orthogonalEdgeStyle;rounded=0;orthogonalLoop=1;jettySize=auto;html=1;exitX=0.5;exitY=1;exitDx=0;exitDy=0;" edge="1" parent="1" source="KF0D9zMGD4cR6DPdZHrD-159" target="KF0D9zMGD4cR6DPdZHrD-159">
          <mxGeometry relative="1" as="geometry" />
        </mxCell>
        <UserObject label="MySQL DB" link="foobar.com" id="KF0D9zMGD4cR6DPdZHrD-161">
          <mxCell style="text;whiteSpace=wrap;fontColor=#F5F5F5;fontSize=27;fontStyle=0" vertex="1" parent="1">
            <mxGeometry x="1049" y="1146" width="160" height="30" as="geometry" />
          </mxCell>
        </UserObject>
        <UserObject label="App Server" link="foobar.com" id="KF0D9zMGD4cR6DPdZHrD-162">
          <mxCell style="text;whiteSpace=wrap;fontColor=#F5F5F5;fontSize=27;fontStyle=0" vertex="1" parent="1">
            <mxGeometry x="826" y="1156" width="160" height="30" as="geometry" />
          </mxCell>
        </UserObject>
        <UserObject label="Nginx" link="foobar.com" id="KF0D9zMGD4cR6DPdZHrD-163">
          <mxCell style="text;whiteSpace=wrap;fontColor=#F5F5F5;fontSize=27;fontStyle=0" vertex="1" parent="1">
            <mxGeometry x="954.75" y="852" width="64" height="30" as="geometry" />
          </mxCell>
        </UserObject>
        <UserObject label="Server" link="foobar.com" id="KF0D9zMGD4cR6DPdZHrD-164">
          <mxCell style="text;whiteSpace=wrap;fontColor=#FCFCFC;fontSize=35;fontStyle=1" vertex="1" parent="1">
            <mxGeometry x="937" y="679" width="116" height="30" as="geometry" />
          </mxCell>
        </UserObject>
        <mxCell id="KF0D9zMGD4cR6DPdZHrD-165" value="" style="image;html=1;image=img/lib/clip_art/computers/Server_128x128.png" vertex="1" parent="1">
          <mxGeometry x="950" y="785" width="80" height="80" as="geometry" />
        </mxCell>
        <UserObject label="www.foobar.com" link="foobar.com" id="KF0D9zMGD4cR6DPdZHrD-166">
          <mxCell style="text;whiteSpace=wrap;fontColor=#FCFCFC;fontSize=28;fontStyle=1" vertex="1" parent="1">
            <mxGeometry x="314" y="114" width="216" height="30" as="geometry" />
          </mxCell>
        </UserObject>
        <mxCell id="KF0D9zMGD4cR6DPdZHrD-167" style="edgeStyle=orthogonalEdgeStyle;rounded=0;orthogonalLoop=1;jettySize=auto;html=1;exitX=0.5;exitY=1;exitDx=0;exitDy=0;" edge="1" parent="1">
          <mxGeometry relative="1" as="geometry">
            <mxPoint x="652" y="144" as="sourcePoint" />
            <mxPoint x="652" y="144" as="targetPoint" />
          </mxGeometry>
        </mxCell>
        <UserObject label="DNS" link="foobar.com" id="KF0D9zMGD4cR6DPdZHrD-168">
          <mxCell style="text;whiteSpace=wrap;fontColor=#FCFCFC;fontSize=30;fontStyle=1" vertex="1" parent="1">
            <mxGeometry x="529" y="48" width="136" height="30" as="geometry" />
          </mxCell>
        </UserObject>
        <UserObject label="User" link="foobar.com" id="KF0D9zMGD4cR6DPdZHrD-169">
          <mxCell style="text;whiteSpace=wrap;fontColor=#FCFCFC;fontSize=30;fontStyle=1" vertex="1" parent="1">
            <mxGeometry x="529" y="184" width="136" height="30" as="geometry" />
          </mxCell>
        </UserObject>
        <UserObject label="Res" link="foobar.com" id="KF0D9zMGD4cR6DPdZHrD-171">
          <mxCell style="text;whiteSpace=wrap;fontColor=#FCFCFC;fontSize=30;fontStyle=1" vertex="1" parent="1">
            <mxGeometry x="610" y="247" width="136" height="30" as="geometry" />
          </mxCell>
        </UserObject>
        <mxCell id="KF0D9zMGD4cR6DPdZHrD-172" value="" style="endArrow=classic;html=1;rounded=0;strokeWidth=3;strokeColor=#FCFCFC;" edge="1" parent="1">
          <mxGeometry width="50" height="50" relative="1" as="geometry">
            <mxPoint x="579" y="311" as="sourcePoint" />
            <mxPoint x="579" y="231" as="targetPoint" />
            <Array as="points" />
          </mxGeometry>
        </mxCell>
        <mxCell id="KF0D9zMGD4cR6DPdZHrD-173" value="" style="endArrow=classic;html=1;rounded=0;strokeWidth=3;strokeColor=#FCFCFC;entryX=0.368;entryY=-0.133;entryDx=0;entryDy=0;entryPerimeter=0;" edge="1" parent="1">
          <mxGeometry width="50" height="50" relative="1" as="geometry">
            <mxPoint x="551" y="232" as="sourcePoint" />
            <mxPoint x="551" y="318" as="targetPoint" />
            <Array as="points" />
          </mxGeometry>
        </mxCell>
        <mxCell id="KF0D9zMGD4cR6DPdZHrD-174" style="edgeStyle=orthogonalEdgeStyle;rounded=0;orthogonalLoop=1;jettySize=auto;html=1;exitX=0.25;exitY=1;exitDx=0;exitDy=0;" edge="1" parent="1" source="KF0D9zMGD4cR6DPdZHrD-158" target="KF0D9zMGD4cR6DPdZHrD-158">
          <mxGeometry relative="1" as="geometry" />
        </mxCell>
        <mxCell id="KF0D9zMGD4cR6DPdZHrD-175" value="" style="verticalLabelPosition=bottom;html=1;verticalAlign=top;align=center;strokeColor=none;fillColor=#F5F5F5;shape=mxgraph.azure.code_file;pointerEvents=1;" vertex="1" parent="1">
          <mxGeometry x="971.25" y="1299" width="47.5" height="50" as="geometry" />
        </mxCell>
        <mxCell id="KF0D9zMGD4cR6DPdZHrD-176" value="" style="shape=datastore;whiteSpace=wrap;html=1;" vertex="1" parent="1">
          <mxGeometry x="1081" y="1056" width="78" height="80" as="geometry" />
        </mxCell>
        <mxCell id="KF0D9zMGD4cR6DPdZHrD-177" value="" style="sketch=0;outlineConnect=0;fontColor=#232F3E;gradientColor=none;fillColor=#F5F5F5;strokeColor=none;dashed=0;verticalLabelPosition=bottom;verticalAlign=top;align=center;html=1;fontSize=12;fontStyle=0;aspect=fixed;pointerEvents=1;shape=mxgraph.aws4.traditional_server;" vertex="1" parent="1">
          <mxGeometry x="859" y="1050.67" width="55" height="95.33" as="geometry" />
        </mxCell>
        <mxCell id="KF0D9zMGD4cR6DPdZHrD-178" value="" style="endArrow=classic;html=1;rounded=0;strokeWidth=3;strokeColor=#FCFCFC;" edge="1" parent="1">
          <mxGeometry width="50" height="50" relative="1" as="geometry">
            <mxPoint x="994.41" y="982" as="sourcePoint" />
            <mxPoint x="994.41" y="902" as="targetPoint" />
            <Array as="points" />
          </mxGeometry>
        </mxCell>
        <mxCell id="KF0D9zMGD4cR6DPdZHrD-179" value="" style="endArrow=classic;html=1;rounded=0;strokeWidth=3;strokeColor=#FCFCFC;" edge="1" parent="1">
          <mxGeometry width="50" height="50" relative="1" as="geometry">
            <mxPoint x="994.41" y="1299" as="sourcePoint" />
            <mxPoint x="994.41" y="1219" as="targetPoint" />
            <Array as="points" />
          </mxGeometry>
        </mxCell>
        <mxCell id="KF0D9zMGD4cR6DPdZHrD-180" value="" style="endArrow=classic;html=1;rounded=0;strokeWidth=3;strokeColor=#FCFCFC;entryX=0.368;entryY=-0.133;entryDx=0;entryDy=0;entryPerimeter=0;" edge="1" parent="1">
          <mxGeometry width="50" height="50" relative="1" as="geometry">
            <mxPoint x="994.41" y="932" as="sourcePoint" />
            <mxPoint x="994.41" y="1018" as="targetPoint" />
            <Array as="points" />
          </mxGeometry>
        </mxCell>
        <mxCell id="KF0D9zMGD4cR6DPdZHrD-181" value="" style="rounded=1;whiteSpace=wrap;html=1;fillColor=#171717;strokeColor=#EA6B66;strokeWidth=5;" vertex="1" parent="1">
          <mxGeometry x="-181" y="675" width="677" height="740" as="geometry" />
        </mxCell>
        <UserObject label="application filesÂ &#xa;" link="foobar.com" id="KF0D9zMGD4cR6DPdZHrD-182">
          <mxCell style="text;whiteSpace=wrap;fontColor=#F5F5F5;fontSize=28;fontStyle=0" vertex="1" parent="1">
            <mxGeometry x="57" y="1349" width="216" height="30" as="geometry" />
          </mxCell>
        </UserObject>
        <mxCell id="KF0D9zMGD4cR6DPdZHrD-183" style="edgeStyle=orthogonalEdgeStyle;rounded=0;orthogonalLoop=1;jettySize=auto;html=1;exitX=0.5;exitY=1;exitDx=0;exitDy=0;" edge="1" parent="1" source="KF0D9zMGD4cR6DPdZHrD-182" target="KF0D9zMGD4cR6DPdZHrD-182">
          <mxGeometry relative="1" as="geometry" />
        </mxCell>
        <UserObject label="MySQL DB" link="foobar.com" id="KF0D9zMGD4cR6DPdZHrD-184">
          <mxCell style="text;whiteSpace=wrap;fontColor=#F5F5F5;fontSize=27;fontStyle=0" vertex="1" parent="1">
            <mxGeometry x="208" y="1146" width="156" height="30" as="geometry" />
          </mxCell>
        </UserObject>
        <UserObject label="App Server" link="foobar.com" id="KF0D9zMGD4cR6DPdZHrD-185">
          <mxCell style="text;whiteSpace=wrap;fontColor=#F5F5F5;fontSize=27;fontStyle=0" vertex="1" parent="1">
            <mxGeometry x="-15" y="1156" width="156" height="30" as="geometry" />
          </mxCell>
        </UserObject>
        <UserObject label="Nginx" link="foobar.com" id="KF0D9zMGD4cR6DPdZHrD-186">
          <mxCell style="text;whiteSpace=wrap;fontColor=#F5F5F5;fontSize=27;fontStyle=0" vertex="1" parent="1">
            <mxGeometry x="113.75" y="852" width="60" height="30" as="geometry" />
          </mxCell>
        </UserObject>
        <UserObject label="Server" link="foobar.com" id="KF0D9zMGD4cR6DPdZHrD-187">
          <mxCell style="text;whiteSpace=wrap;fontColor=#FCFCFC;fontSize=35;fontStyle=1" vertex="1" parent="1">
            <mxGeometry x="96" y="679" width="112" height="30" as="geometry" />
          </mxCell>
        </UserObject>
        <mxCell id="KF0D9zMGD4cR6DPdZHrD-188" value="" style="image;html=1;image=img/lib/clip_art/computers/Server_128x128.png" vertex="1" parent="1">
          <mxGeometry x="109" y="785" width="76" height="80" as="geometry" />
        </mxCell>
        <mxCell id="KF0D9zMGD4cR6DPdZHrD-189" value="" style="verticalLabelPosition=bottom;html=1;verticalAlign=top;align=center;strokeColor=none;fillColor=#F5F5F5;shape=mxgraph.azure.code_file;pointerEvents=1;" vertex="1" parent="1">
          <mxGeometry x="130.25" y="1299" width="43.5" height="50" as="geometry" />
        </mxCell>
        <mxCell id="KF0D9zMGD4cR6DPdZHrD-190" value="" style="shape=datastore;whiteSpace=wrap;html=1;" vertex="1" parent="1">
          <mxGeometry x="240" y="1056" width="74" height="80" as="geometry" />
        </mxCell>
        <mxCell id="KF0D9zMGD4cR6DPdZHrD-191" value="" style="sketch=0;outlineConnect=0;fontColor=#232F3E;gradientColor=none;fillColor=#F5F5F5;strokeColor=none;dashed=0;verticalLabelPosition=bottom;verticalAlign=top;align=center;html=1;fontSize=12;fontStyle=0;aspect=fixed;pointerEvents=1;shape=mxgraph.aws4.traditional_server;" vertex="1" parent="1">
          <mxGeometry x="18" y="1050.67" width="51" height="95.33" as="geometry" />
        </mxCell>
        <mxCell id="KF0D9zMGD4cR6DPdZHrD-192" value="" style="endArrow=classic;html=1;rounded=0;strokeWidth=3;strokeColor=#FCFCFC;" edge="1" parent="1">
          <mxGeometry width="50" height="50" relative="1" as="geometry">
            <mxPoint x="153.40999999999997" y="982" as="sourcePoint" />
            <mxPoint x="153.40999999999997" y="902" as="targetPoint" />
            <Array as="points" />
          </mxGeometry>
        </mxCell>
        <mxCell id="KF0D9zMGD4cR6DPdZHrD-193" value="" style="endArrow=classic;html=1;rounded=0;strokeWidth=3;strokeColor=#FCFCFC;" edge="1" parent="1">
          <mxGeometry width="50" height="50" relative="1" as="geometry">
            <mxPoint x="151.40999999999997" y="1299" as="sourcePoint" />
            <mxPoint x="151.40999999999997" y="1219" as="targetPoint" />
            <Array as="points" />
          </mxGeometry>
        </mxCell>
        <mxCell id="KF0D9zMGD4cR6DPdZHrD-194" value="" style="endArrow=classic;html=1;rounded=0;strokeWidth=3;strokeColor=#FCFCFC;entryX=0.368;entryY=-0.133;entryDx=0;entryDy=0;entryPerimeter=0;" edge="1" parent="1">
          <mxGeometry width="50" height="50" relative="1" as="geometry">
            <mxPoint x="153.40999999999997" y="932" as="sourcePoint" />
            <mxPoint x="153.40999999999997" y="1018" as="targetPoint" />
            <Array as="points" />
          </mxGeometry>
        </mxCell>
        <mxCell id="KF0D9zMGD4cR6DPdZHrD-195" value="" style="verticalLabelPosition=bottom;html=1;verticalAlign=top;align=center;strokeColor=none;fillColor=#00BEF2;shape=mxgraph.azure.azure_load_balancer;" vertex="1" parent="1">
          <mxGeometry x="420" y="340" width="300" height="115" as="geometry" />
        </mxCell>
        <mxCell id="KF0D9zMGD4cR6DPdZHrD-196" value="" style="endArrow=classic;html=1;rounded=0;strokeWidth=3;strokeColor=#FCFCFC;" edge="1" parent="1">
          <mxGeometry width="50" height="50" relative="1" as="geometry">
            <mxPoint x="505" y="490" as="sourcePoint" />
            <mxPoint x="138" y="650" as="targetPoint" />
            <Array as="points">
              <mxPoint x="505" y="520" />
              <mxPoint x="138" y="520" />
            </Array>
          </mxGeometry>
        </mxCell>
        <mxCell id="KF0D9zMGD4cR6DPdZHrD-197" value="" style="endArrow=classic;html=1;rounded=0;strokeWidth=3;strokeColor=#FCFCFC;" edge="1" parent="1">
          <mxGeometry width="50" height="50" relative="1" as="geometry">
            <mxPoint x="660" y="470" as="sourcePoint" />
            <mxPoint x="1000" y="630" as="targetPoint" />
            <Array as="points">
              <mxPoint x="660" y="520" />
              <mxPoint x="1000" y="520" />
              <mxPoint x="1000" y="600" />
            </Array>
          </mxGeometry>
        </mxCell>
        <mxCell id="KF0D9zMGD4cR6DPdZHrD-198" value="" style="endArrow=classic;html=1;rounded=0;strokeWidth=3;strokeColor=#FCFCFC;" edge="1" parent="1">
          <mxGeometry width="50" height="50" relative="1" as="geometry">
            <mxPoint x="660" y="510" as="sourcePoint" />
            <mxPoint x="660.4100000000001" y="460" as="targetPoint" />
            <Array as="points" />
          </mxGeometry>
        </mxCell>
        <mxCell id="KF0D9zMGD4cR6DPdZHrD-199" value="" style="endArrow=classic;html=1;rounded=0;strokeWidth=3;strokeColor=#FCFCFC;" edge="1" parent="1">
          <mxGeometry width="50" height="50" relative="1" as="geometry">
            <mxPoint x="504.90999999999997" y="510" as="sourcePoint" />
            <mxPoint x="505.32000000000005" y="460" as="targetPoint" />
            <Array as="points" />
          </mxGeometry>
        </mxCell>
        <mxCell id="KF0D9zMGD4cR6DPdZHrD-200" value="" style="endArrow=classic;html=1;rounded=0;strokeWidth=3;strokeColor=#FCFCFC;" edge="1" parent="1">
          <mxGeometry width="50" height="50" relative="1" as="geometry">
            <mxPoint x="1038.75" y="1110" as="sourcePoint" />
            <mxPoint x="1050" y="1110" as="targetPoint" />
            <Array as="points" />
          </mxGeometry>
        </mxCell>
        <mxCell id="KF0D9zMGD4cR6DPdZHrD-201" value="" style="endArrow=classic;html=1;rounded=0;strokeWidth=3;strokeColor=#FCFCFC;entryX=0.368;entryY=-0.133;entryDx=0;entryDy=0;entryPerimeter=0;exitX=0.529;exitY=0.609;exitDx=0;exitDy=0;exitPerimeter=0;" edge="1" parent="1">
          <mxGeometry width="50" height="50" relative="1" as="geometry">
            <mxPoint x="1037.9989999999998" y="1109.6599999999999" as="sourcePoint" />
            <mxPoint x="954.75" y="1110" as="targetPoint" />
            <Array as="points" />
          </mxGeometry>
        </mxCell>
        <mxCell id="KF0D9zMGD4cR6DPdZHrD-202" value="" style="endArrow=classic;html=1;rounded=0;strokeWidth=3;strokeColor=#FCFCFC;" edge="1" parent="1">
          <mxGeometry width="50" height="50" relative="1" as="geometry">
            <mxPoint x="188.38" y="1100.34" as="sourcePoint" />
            <mxPoint x="199.63" y="1100.34" as="targetPoint" />
            <Array as="points" />
          </mxGeometry>
        </mxCell>
        <mxCell id="KF0D9zMGD4cR6DPdZHrD-203" value="" style="endArrow=classic;html=1;rounded=0;strokeWidth=3;strokeColor=#FCFCFC;entryX=0.368;entryY=-0.133;entryDx=0;entryDy=0;entryPerimeter=0;exitX=0.529;exitY=0.609;exitDx=0;exitDy=0;exitPerimeter=0;" edge="1" parent="1">
          <mxGeometry width="50" height="50" relative="1" as="geometry">
            <mxPoint x="187.6289999999998" y="1099.9999999999998" as="sourcePoint" />
            <mxPoint x="104.38" y="1100.34" as="targetPoint" />
            <Array as="points" />
          </mxGeometry>
        </mxCell>
      </root>
    </mxGraphModel>
  </diagram>
</mxfile>
